  0
SECTION
  2
HEADER
  9
$ACADVER
  1
AC1009
  9
$FILLMODE
 70
 0
  9
$SPLFRAME
 70
 1
  9
$EXTMIN
 10
0
 20
0
 30
0.0
  9
$EXTMAX
 10
1058.33
 20
1058.33
 30
0.0
  0
ENDSEC
  0
SECTION
  2
TABLES
  0
TABLE
  2
LAYER
 70
1
  0
LAYER
  2
0
 70
     0
 62
     7
  6
CONTINUOUS
  0
ENDTAB
  0
ENDSEC
  0
SECTION
  2
ENTITIES
  0
LINE
  8
0
 62
     0
 10
0.0950846
 20
118.438
 30
0.0
 11
99.1553
 21
118.438
 31
0.0
  0
LINE
  8
0
 62
     0
 10
99.1553
 20
118.438
 30
0.0
 11
99.1553
 21
0.327973
 31
0.0
  0
LINE
  8
0
 62
     0
 10
99.1553
 20
0.327973
 30
0.0
 11
0.0950846
 21
0.327973
 31
0.0
  0
LINE
  8
0
 62
     0
 10
0.0950846
 20
0.327973
 30
0.0
 11
0.0950846
 21
118.438
 31
0.0
  0
LINE
  8
0
 62
     0
 10
12.1447
 20
16.8534
 30
0.0
 11
12.1447
 21
15.8543
 31
0.0
  0
LINE
  8
0
 62
     0
 10
12.1447
 20
15.8543
 30
0.0
 11
11.344
 21
15.8543
 31
0.0
  0
LINE
  8
0
 62
     0
 10
11.344
 20
15.8543
 30
0.0
 11
11.344
 21
12.7537
 31
0.0
  0
LINE
  8
0
 62
     0
 10
11.344
 20
12.7537
 30
0.0
 11
12.1447
 21
12.7537
 31
0.0
  0
LINE
  8
0
 62
     0
 10
12.1447
 20
12.7537
 30
0.0
 11
12.1447
 21
12.1543
 31
0.0
  0
LINE
  8
0
 62
     0
 10
12.1447
 20
12.1543
 30
0.0
 11
10.6192
 21
12.1543
 31
0.0
  0
LINE
  8
0
 62
     0
 10
10.6192
 20
12.1543
 30
0.0
 11
10.6192
 21
15.3844
 31
0.0
  0
LINE
  8
0
 62
     0
 10
10.6192
 20
15.3844
 30
0.0
 11
8.89385
 21
15.3844
 31
0.0
  0
LINE
  8
0
 62
     0
 10
8.89385
 20
15.3844
 30
0.0
 11
8.89385
 21
16.3036
 31
0.0
  0
LINE
  8
0
 62
     0
 10
8.89385
 20
16.3036
 30
0.0
 11
5.59484
 21
16.3036
 31
0.0
  0
LINE
  8
0
 62
     0
 10
5.59484
 20
16.3036
 30
0.0
 11
5.59484
 21
15.3844
 31
0.0
  0
LINE
  8
0
 62
     0
 10
5.59484
 20
15.3844
 30
0.0
 11
3.86955
 21
15.3844
 31
0.0
  0
LINE
  8
0
 62
     0
 10
3.86955
 20
15.3844
 30
0.0
 11
3.86955
 21
12.1543
 31
0.0
  0
LINE
  8
0
 62
     0
 10
3.86955
 20
12.1543
 30
0.0
 11
3.04409
 21
12.1543
 31
0.0
  0
LINE
  8
0
 62
     0
 10
3.04409
 20
12.1543
 30
0.0
 11
3.04409
 21
9.35411
 31
0.0
  0
LINE
  8
0
 62
     0
 10
3.04409
 20
9.35411
 30
0.0
 11
3.86955
 21
9.35411
 31
0.0
  0
LINE
  8
0
 62
     0
 10
3.86955
 20
9.35411
 30
0.0
 11
3.86955
 21
3.08405
 31
0.0
  0
LINE
  8
0
 62
     0
 10
3.86955
 20
3.08405
 30
0.0
 11
5.59484
 21
3.08405
 31
0.0
  0
LINE
  8
0
 62
     0
 10
5.59484
 20
3.08405
 30
0.0
 11
5.59484
 21
2.10426
 31
0.0
  0
LINE
  8
0
 62
     0
 10
5.59484
 20
2.10426
 30
0.0
 11
8.89385
 21
2.10426
 31
0.0
  0
LINE
  8
0
 62
     0
 10
8.89385
 20
2.10426
 30
0.0
 11
8.89385
 21
3.08405
 31
0.0
  0
LINE
  8
0
 62
     0
 10
8.89385
 20
3.08405
 30
0.0
 11
10.6192
 21
3.08405
 31
0.0
  0
LINE
  8
0
 62
     0
 10
10.6192
 20
3.08405
 30
0.0
 11
10.6192
 21
7.55442
 31
0.0
  0
LINE
  8
0
 62
     0
 10
10.6192
 20
7.55442
 30
0.0
 11
12.1447
 21
7.55442
 31
0.0
  0
LINE
  8
0
 62
     0
 10
12.1447
 20
7.55442
 30
0.0
 11
12.1447
 21
6.95357
 31
0.0
  0
LINE
  8
0
 62
     0
 10
12.1447
 20
6.95357
 30
0.0
 11
11.344
 21
6.95357
 31
0.0
  0
LINE
  8
0
 62
     0
 10
11.344
 20
6.95357
 30
0.0
 11
11.344
 21
3.85438
 31
0.0
  0
LINE
  8
0
 62
     0
 10
11.344
 20
3.85438
 30
0.0
 11
12.1447
 21
3.85438
 31
0.0
  0
LINE
  8
0
 62
     0
 10
12.1447
 20
3.85438
 30
0.0
 11
12.1447
 21
2.85392
 31
0.0
  0
LINE
  8
0
 62
     0
 10
12.1447
 20
2.85392
 30
0.0
 11
26.1441
 21
2.85392
 31
0.0
  0
LINE
  8
0
 62
     0
 10
26.1441
 20
2.85392
 30
0.0
 11
26.1441
 21
3.85438
 31
0.0
  0
LINE
  8
0
 62
     0
 10
26.1441
 20
3.85438
 30
0.0
 11
26.9448
 21
3.85438
 31
0.0
  0
LINE
  8
0
 62
     0
 10
26.9448
 20
3.85438
 30
0.0
 11
26.9448
 21
6.95357
 31
0.0
  0
LINE
  8
0
 62
     0
 10
26.9448
 20
6.95357
 30
0.0
 11
26.1441
 21
6.95357
 31
0.0
  0
LINE
  8
0
 62
     0
 10
26.1441
 20
6.95357
 30
0.0
 11
26.1441
 21
7.55442
 31
0.0
  0
LINE
  8
0
 62
     0
 10
26.1441
 20
7.55442
 30
0.0
 11
27.6696
 21
7.55442
 31
0.0
  0
LINE
  8
0
 62
     0
 10
27.6696
 20
7.55442
 30
0.0
 11
27.6696
 21
3.08405
 31
0.0
  0
LINE
  8
0
 62
     0
 10
27.6696
 20
3.08405
 30
0.0
 11
29.3949
 21
3.08405
 31
0.0
  0
LINE
  8
0
 62
     0
 10
29.3949
 20
3.08405
 30
0.0
 11
29.3949
 21
2.10426
 31
0.0
  0
LINE
  8
0
 62
     0
 10
29.3949
 20
2.10426
 30
0.0
 11
32.694
 21
2.10426
 31
0.0
  0
LINE
  8
0
 62
     0
 10
32.694
 20
2.10426
 30
0.0
 11
32.694
 21
3.08405
 31
0.0
  0
LINE
  8
0
 62
     0
 10
32.694
 20
3.08405
 30
0.0
 11
34.4193
 21
3.08405
 31
0.0
  0
LINE
  8
0
 62
     0
 10
34.4193
 20
3.08405
 30
0.0
 11
34.4193
 21
9.35411
 31
0.0
  0
LINE
  8
0
 62
     0
 10
34.4193
 20
9.35411
 30
0.0
 11
35.2447
 21
9.35411
 31
0.0
  0
LINE
  8
0
 62
     0
 10
35.2447
 20
9.35411
 30
0.0
 11
35.2447
 21
12.1543
 31
0.0
  0
LINE
  8
0
 62
     0
 10
35.2447
 20
12.1543
 30
0.0
 11
34.4193
 21
12.1543
 31
0.0
  0
LINE
  8
0
 62
     0
 10
34.4193
 20
12.1543
 30
0.0
 11
34.4193
 21
15.3844
 31
0.0
  0
LINE
  8
0
 62
     0
 10
34.4193
 20
15.3844
 30
0.0
 11
32.694
 21
15.3844
 31
0.0
  0
LINE
  8
0
 62
     0
 10
32.694
 20
15.3844
 30
0.0
 11
32.694
 21
16.3036
 31
0.0
  0
LINE
  8
0
 62
     0
 10
32.694
 20
16.3036
 30
0.0
 11
29.3949
 21
16.3036
 31
0.0
  0
LINE
  8
0
 62
     0
 10
29.3949
 20
16.3036
 30
0.0
 11
29.3949
 21
15.3844
 31
0.0
  0
LINE
  8
0
 62
     0
 10
29.3949
 20
15.3844
 30
0.0
 11
27.6696
 21
15.3844
 31
0.0
  0
LINE
  8
0
 62
     0
 10
27.6696
 20
15.3844
 30
0.0
 11
27.6696
 21
12.1543
 31
0.0
  0
LINE
  8
0
 62
     0
 10
27.6696
 20
12.1543
 30
0.0
 11
26.1441
 21
12.1543
 31
0.0
  0
LINE
  8
0
 62
     0
 10
26.1441
 20
12.1543
 30
0.0
 11
26.1441
 21
12.7537
 31
0.0
  0
LINE
  8
0
 62
     0
 10
26.1441
 20
12.7537
 30
0.0
 11
26.9448
 21
12.7537
 31
0.0
  0
LINE
  8
0
 62
     0
 10
26.9448
 20
12.7537
 30
0.0
 11
26.9448
 21
15.8543
 31
0.0
  0
LINE
  8
0
 62
     0
 10
26.9448
 20
15.8543
 30
0.0
 11
26.1441
 21
15.8543
 31
0.0
  0
LINE
  8
0
 62
     0
 10
26.1441
 20
15.8543
 30
0.0
 11
26.1441
 21
16.8534
 31
0.0
  0
LINE
  8
0
 62
     0
 10
26.1441
 20
16.8534
 30
0.0
 11
12.1447
 21
16.8534
 31
0.0
  0
LINE
  8
0
 62
     0
 10
40.7197
 20
16.8534
 30
0.0
 11
40.7197
 21
15.8543
 31
0.0
  0
LINE
  8
0
 62
     0
 10
40.7197
 20
15.8543
 30
0.0
 11
39.9189
 21
15.8543
 31
0.0
  0
LINE
  8
0
 62
     0
 10
39.9189
 20
15.8543
 30
0.0
 11
39.9189
 21
12.7537
 31
0.0
  0
LINE
  8
0
 62
     0
 10
39.9189
 20
12.7537
 30
0.0
 11
40.7197
 21
12.7537
 31
0.0
  0
LINE
  8
0
 62
     0
 10
40.7197
 20
12.7537
 30
0.0
 11
40.7197
 21
6.95357
 31
0.0
  0
LINE
  8
0
 62
     0
 10
40.7197
 20
6.95357
 30
0.0
 11
39.9189
 21
6.95357
 31
0.0
  0
LINE
  8
0
 62
     0
 10
39.9189
 20
6.95357
 30
0.0
 11
39.9189
 21
3.85438
 31
0.0
  0
LINE
  8
0
 62
     0
 10
39.9189
 20
3.85438
 30
0.0
 11
40.7197
 21
3.85438
 31
0.0
  0
LINE
  8
0
 62
     0
 10
40.7197
 20
3.85438
 30
0.0
 11
40.7197
 21
2.85392
 31
0.0
  0
LINE
  8
0
 62
     0
 10
40.7197
 20
2.85392
 30
0.0
 11
54.719
 21
2.85392
 31
0.0
  0
LINE
  8
0
 62
     0
 10
54.719
 20
2.85392
 30
0.0
 11
54.719
 21
3.85438
 31
0.0
  0
LINE
  8
0
 62
     0
 10
54.719
 20
3.85438
 30
0.0
 11
55.5198
 21
3.85438
 31
0.0
  0
LINE
  8
0
 62
     0
 10
55.5198
 20
3.85438
 30
0.0
 11
55.5198
 21
6.95357
 31
0.0
  0
LINE
  8
0
 62
     0
 10
55.5198
 20
6.95357
 30
0.0
 11
54.719
 21
6.95357
 31
0.0
  0
LINE
  8
0
 62
     0
 10
54.719
 20
6.95357
 30
0.0
 11
54.719
 21
12.7537
 31
0.0
  0
LINE
  8
0
 62
     0
 10
54.719
 20
12.7537
 30
0.0
 11
55.5198
 21
12.7537
 31
0.0
  0
LINE
  8
0
 62
     0
 10
55.5198
 20
12.7537
 30
0.0
 11
55.5198
 21
15.8543
 31
0.0
  0
LINE
  8
0
 62
     0
 10
55.5198
 20
15.8543
 30
0.0
 11
54.719
 21
15.8543
 31
0.0
  0
LINE
  8
0
 62
     0
 10
54.719
 20
15.8543
 30
0.0
 11
54.719
 21
16.8534
 31
0.0
  0
LINE
  8
0
 62
     0
 10
54.719
 20
16.8534
 30
0.0
 11
40.7197
 21
16.8534
 31
0.0
  0
LINE
  8
0
 62
     0
 10
82.6301
 20
16.8534
 30
0.0
 11
82.6301
 21
15.8543
 31
0.0
  0
LINE
  8
0
 62
     0
 10
82.6301
 20
15.8543
 30
0.0
 11
81.8293
 21
15.8543
 31
0.0
  0
LINE
  8
0
 62
     0
 10
81.8293
 20
15.8543
 30
0.0
 11
81.8293
 21
12.7537
 31
0.0
  0
LINE
  8
0
 62
     0
 10
81.8293
 20
12.7537
 30
0.0
 11
82.6301
 21
12.7537
 31
0.0
  0
LINE
  8
0
 62
     0
 10
82.6301
 20
12.7537
 30
0.0
 11
82.6301
 21
6.95357
 31
0.0
  0
LINE
  8
0
 62
     0
 10
82.6301
 20
6.95357
 30
0.0
 11
81.8293
 21
6.95357
 31
0.0
  0
LINE
  8
0
 62
     0
 10
81.8293
 20
6.95357
 30
0.0
 11
81.8293
 21
3.85438
 31
0.0
  0
LINE
  8
0
 62
     0
 10
81.8293
 20
3.85438
 30
0.0
 11
82.6301
 21
3.85438
 31
0.0
  0
LINE
  8
0
 62
     0
 10
82.6301
 20
3.85438
 30
0.0
 11
82.6301
 21
2.85392
 31
0.0
  0
LINE
  8
0
 62
     0
 10
82.6301
 20
2.85392
 30
0.0
 11
96.6294
 21
2.85392
 31
0.0
  0
LINE
  8
0
 62
     0
 10
96.6294
 20
2.85392
 30
0.0
 11
96.6294
 21
3.85438
 31
0.0
  0
LINE
  8
0
 62
     0
 10
96.6294
 20
3.85438
 30
0.0
 11
97.4302
 21
3.85438
 31
0.0
  0
LINE
  8
0
 62
     0
 10
97.4302
 20
3.85438
 30
0.0
 11
97.4302
 21
6.95357
 31
0.0
  0
LINE
  8
0
 62
     0
 10
97.4302
 20
6.95357
 30
0.0
 11
96.6294
 21
6.95357
 31
0.0
  0
LINE
  8
0
 62
     0
 10
96.6294
 20
6.95357
 30
0.0
 11
96.6294
 21
12.7537
 31
0.0
  0
LINE
  8
0
 62
     0
 10
96.6294
 20
12.7537
 30
0.0
 11
97.4302
 21
12.7537
 31
0.0
  0
LINE
  8
0
 62
     0
 10
97.4302
 20
12.7537
 30
0.0
 11
97.4302
 21
15.8543
 31
0.0
  0
LINE
  8
0
 62
     0
 10
97.4302
 20
15.8543
 30
0.0
 11
96.6294
 21
15.8543
 31
0.0
  0
LINE
  8
0
 62
     0
 10
96.6294
 20
15.8543
 30
0.0
 11
96.6294
 21
16.8534
 31
0.0
  0
LINE
  8
0
 62
     0
 10
96.6294
 20
16.8534
 30
0.0
 11
82.6301
 21
16.8534
 31
0.0
  0
LINE
  8
0
 62
     0
 10
66.27
 20
35.4789
 30
0.0
 11
66.27
 21
34.6535
 31
0.0
  0
LINE
  8
0
 62
     0
 10
66.27
 20
34.6535
 30
0.0
 11
59.9997
 21
34.6535
 31
0.0
  0
LINE
  8
0
 62
     0
 10
59.9997
 20
34.6535
 30
0.0
 11
59.9997
 21
32.9282
 31
0.0
  0
LINE
  8
0
 62
     0
 10
59.9997
 20
32.9282
 30
0.0
 11
59.0201
 21
32.9282
 31
0.0
  0
LINE
  8
0
 62
     0
 10
59.0201
 20
32.9282
 30
0.0
 11
59.0201
 21
29.6292
 31
0.0
  0
LINE
  8
0
 62
     0
 10
59.0201
 20
29.6292
 30
0.0
 11
59.9997
 21
29.6292
 31
0.0
  0
LINE
  8
0
 62
     0
 10
59.9997
 20
29.6292
 30
0.0
 11
59.9997
 21
27.9039
 31
0.0
  0
LINE
  8
0
 62
     0
 10
59.9997
 20
27.9039
 30
0.0
 11
64.4701
 21
27.9039
 31
0.0
  0
LINE
  8
0
 62
     0
 10
64.4701
 20
27.9039
 30
0.0
 11
64.4701
 21
26.3784
 31
0.0
  0
LINE
  8
0
 62
     0
 10
64.4701
 20
26.3784
 30
0.0
 11
63.8679
 21
26.3784
 31
0.0
  0
LINE
  8
0
 62
     0
 10
63.8679
 20
26.3784
 30
0.0
 11
63.8679
 21
27.1791
 31
0.0
  0
LINE
  8
0
 62
     0
 10
63.8679
 20
27.1791
 30
0.0
 11
60.7702
 21
27.1791
 31
0.0
  0
LINE
  8
0
 62
     0
 10
60.7702
 20
27.1791
 30
0.0
 11
60.7702
 21
26.3784
 31
0.0
  0
LINE
  8
0
 62
     0
 10
60.7702
 20
26.3784
 30
0.0
 11
59.7697
 21
26.3784
 31
0.0
  0
LINE
  8
0
 62
     0
 10
59.7697
 20
26.3784
 30
0.0
 11
59.7697
 21
12.3789
 31
0.0
  0
LINE
  8
0
 62
     0
 10
59.7697
 20
12.3789
 30
0.0
 11
60.7702
 21
12.3789
 31
0.0
  0
LINE
  8
0
 62
     0
 10
60.7702
 20
12.3789
 30
0.0
 11
60.7702
 21
11.5783
 31
0.0
  0
LINE
  8
0
 62
     0
 10
60.7702
 20
11.5783
 30
0.0
 11
63.8679
 21
11.5783
 31
0.0
  0
LINE
  8
0
 62
     0
 10
63.8679
 20
11.5783
 30
0.0
 11
63.8679
 21
12.3789
 31
0.0
  0
LINE
  8
0
 62
     0
 10
63.8679
 20
12.3789
 30
0.0
 11
64.4701
 21
12.3789
 31
0.0
  0
LINE
  8
0
 62
     0
 10
64.4701
 20
12.3789
 30
0.0
 11
64.4701
 21
10.8534
 31
0.0
  0
LINE
  8
0
 62
     0
 10
64.4701
 20
10.8534
 30
0.0
 11
59.9997
 21
10.8534
 31
0.0
  0
LINE
  8
0
 62
     0
 10
59.9997
 20
10.8534
 30
0.0
 11
59.9997
 21
9.1295
 31
0.0
  0
LINE
  8
0
 62
     0
 10
59.9997
 20
9.1295
 30
0.0
 11
59.0201
 21
9.1295
 31
0.0
  0
LINE
  8
0
 62
     0
 10
59.0201
 20
9.1295
 30
0.0
 11
59.0201
 21
5.82909
 31
0.0
  0
LINE
  8
0
 62
     0
 10
59.0201
 20
5.82909
 30
0.0
 11
59.9997
 21
5.82909
 31
0.0
  0
LINE
  8
0
 62
     0
 10
59.9997
 20
5.82909
 30
0.0
 11
59.9997
 21
4.10379
 31
0.0
  0
LINE
  8
0
 62
     0
 10
59.9997
 20
4.10379
 30
0.0
 11
66.27
 21
4.10379
 31
0.0
  0
LINE
  8
0
 62
     0
 10
66.27
 20
4.10379
 30
0.0
 11
66.27
 21
3.27835
 31
0.0
  0
LINE
  8
0
 62
     0
 10
66.27
 20
3.27835
 30
0.0
 11
69.07
 21
3.27835
 31
0.0
  0
LINE
  8
0
 62
     0
 10
69.07
 20
3.27835
 30
0.0
 11
69.07
 21
4.10379
 31
0.0
  0
LINE
  8
0
 62
     0
 10
69.07
 20
4.10379
 30
0.0
 11
72.3
 21
4.10379
 31
0.0
  0
LINE
  8
0
 62
     0
 10
72.3
 20
4.10379
 30
0.0
 11
72.3
 21
5.82909
 31
0.0
  0
LINE
  8
0
 62
     0
 10
72.3
 20
5.82909
 30
0.0
 11
73.2194
 21
5.82909
 31
0.0
  0
LINE
  8
0
 62
     0
 10
73.2194
 20
5.82909
 30
0.0
 11
73.2194
 21
9.1295
 31
0.0
  0
LINE
  8
0
 62
     0
 10
73.2194
 20
9.1295
 30
0.0
 11
72.3
 21
9.1295
 31
0.0
  0
LINE
  8
0
 62
     0
 10
72.3
 20
9.1295
 30
0.0
 11
72.3
 21
10.8534
 31
0.0
  0
LINE
  8
0
 62
     0
 10
72.3
 20
10.8534
 30
0.0
 11
69.07
 21
10.8534
 31
0.0
  0
LINE
  8
0
 62
     0
 10
69.07
 20
10.8534
 30
0.0
 11
69.07
 21
12.3789
 31
0.0
  0
LINE
  8
0
 62
     0
 10
69.07
 20
12.3789
 30
0.0
 11
69.6694
 21
12.3789
 31
0.0
  0
LINE
  8
0
 62
     0
 10
69.6694
 20
12.3789
 30
0.0
 11
69.6694
 21
11.5783
 31
0.0
  0
LINE
  8
0
 62
     0
 10
69.6694
 20
11.5783
 30
0.0
 11
72.7699
 21
11.5783
 31
0.0
  0
LINE
  8
0
 62
     0
 10
72.7699
 20
11.5783
 30
0.0
 11
72.7699
 21
12.3789
 31
0.0
  0
LINE
  8
0
 62
     0
 10
72.7699
 20
12.3789
 30
0.0
 11
73.769
 21
12.3789
 31
0.0
  0
LINE
  8
0
 62
     0
 10
73.769
 20
12.3789
 30
0.0
 11
73.769
 21
26.3784
 31
0.0
  0
LINE
  8
0
 62
     0
 10
73.769
 20
26.3784
 30
0.0
 11
72.7699
 21
26.3784
 31
0.0
  0
LINE
  8
0
 62
     0
 10
72.7699
 20
26.3784
 30
0.0
 11
72.7699
 21
27.1791
 31
0.0
  0
LINE
  8
0
 62
     0
 10
72.7699
 20
27.1791
 30
0.0
 11
69.6694
 21
27.1791
 31
0.0
  0
LINE
  8
0
 62
     0
 10
69.6694
 20
27.1791
 30
0.0
 11
69.6694
 21
26.3784
 31
0.0
  0
LINE
  8
0
 62
     0
 10
69.6694
 20
26.3784
 30
0.0
 11
69.07
 21
26.3784
 31
0.0
  0
LINE
  8
0
 62
     0
 10
69.07
 20
26.3784
 30
0.0
 11
69.07
 21
27.9039
 31
0.0
  0
LINE
  8
0
 62
     0
 10
69.07
 20
27.9039
 30
0.0
 11
72.3
 21
27.9039
 31
0.0
  0
LINE
  8
0
 62
     0
 10
72.3
 20
27.9039
 30
0.0
 11
72.3
 21
29.6292
 31
0.0
  0
LINE
  8
0
 62
     0
 10
72.3
 20
29.6292
 30
0.0
 11
73.2194
 21
29.6292
 31
0.0
  0
LINE
  8
0
 62
     0
 10
73.2194
 20
29.6292
 30
0.0
 11
73.2194
 21
32.9282
 31
0.0
  0
LINE
  8
0
 62
     0
 10
73.2194
 20
32.9282
 30
0.0
 11
72.3
 21
32.9282
 31
0.0
  0
LINE
  8
0
 62
     0
 10
72.3
 20
32.9282
 30
0.0
 11
72.3
 21
34.6535
 31
0.0
  0
LINE
  8
0
 62
     0
 10
72.3
 20
34.6535
 30
0.0
 11
69.07
 21
34.6535
 31
0.0
  0
LINE
  8
0
 62
     0
 10
69.07
 20
34.6535
 30
0.0
 11
69.07
 21
35.4789
 31
0.0
  0
LINE
  8
0
 62
     0
 10
69.07
 20
35.4789
 30
0.0
 11
66.27
 21
35.4789
 31
0.0
  0
LINE
  8
0
 62
     0
 10
2.61965
 20
35.9033
 30
0.0
 11
2.61965
 21
34.9043
 31
0.0
  0
LINE
  8
0
 62
     0
 10
2.61965
 20
34.9043
 30
0.0
 11
1.81901
 21
34.9043
 31
0.0
  0
LINE
  8
0
 62
     0
 10
1.81901
 20
34.9043
 30
0.0
 11
1.81901
 21
31.8037
 31
0.0
  0
LINE
  8
0
 62
     0
 10
1.81901
 20
31.8037
 30
0.0
 11
2.61965
 21
31.8037
 31
0.0
  0
LINE
  8
0
 62
     0
 10
2.61965
 20
31.8037
 30
0.0
 11
2.61965
 21
26.0036
 31
0.0
  0
LINE
  8
0
 62
     0
 10
2.61965
 20
26.0036
 30
0.0
 11
1.81901
 21
26.0036
 31
0.0
  0
LINE
  8
0
 62
     0
 10
1.81901
 20
26.0036
 30
0.0
 11
1.81901
 21
22.9044
 31
0.0
  0
LINE
  8
0
 62
     0
 10
1.81901
 20
22.9044
 30
0.0
 11
2.61965
 21
22.9044
 31
0.0
  0
LINE
  8
0
 62
     0
 10
2.61965
 20
22.9044
 30
0.0
 11
2.61965
 21
21.9039
 31
0.0
  0
LINE
  8
0
 62
     0
 10
2.61965
 20
21.9039
 30
0.0
 11
16.6192
 21
21.9039
 31
0.0
  0
LINE
  8
0
 62
     0
 10
16.6192
 20
21.9039
 30
0.0
 11
16.6192
 21
22.9044
 31
0.0
  0
LINE
  8
0
 62
     0
 10
16.6192
 20
22.9044
 30
0.0
 11
17.4198
 21
22.9044
 31
0.0
  0
LINE
  8
0
 62
     0
 10
17.4198
 20
22.9044
 30
0.0
 11
17.4198
 21
26.0036
 31
0.0
  0
LINE
  8
0
 62
     0
 10
17.4198
 20
26.0036
 30
0.0
 11
16.6192
 21
26.0036
 31
0.0
  0
LINE
  8
0
 62
     0
 10
16.6192
 20
26.0036
 30
0.0
 11
16.6192
 21
31.8037
 31
0.0
  0
LINE
  8
0
 62
     0
 10
16.6192
 20
31.8037
 30
0.0
 11
17.4198
 21
31.8037
 31
0.0
  0
LINE
  8
0
 62
     0
 10
17.4198
 20
31.8037
 30
0.0
 11
17.4198
 21
34.9043
 31
0.0
  0
LINE
  8
0
 62
     0
 10
17.4198
 20
34.9043
 30
0.0
 11
16.6192
 21
34.9043
 31
0.0
  0
LINE
  8
0
 62
     0
 10
16.6192
 20
34.9043
 30
0.0
 11
16.6192
 21
35.9033
 31
0.0
  0
LINE
  8
0
 62
     0
 10
16.6192
 20
35.9033
 30
0.0
 11
2.61965
 21
35.9033
 31
0.0
  0
LINE
  8
0
 62
     0
 10
21.6697
 20
35.9033
 30
0.0
 11
21.6697
 21
34.9043
 31
0.0
  0
LINE
  8
0
 62
     0
 10
21.6697
 20
34.9043
 30
0.0
 11
20.869
 21
34.9043
 31
0.0
  0
LINE
  8
0
 62
     0
 10
20.869
 20
34.9043
 30
0.0
 11
20.869
 21
31.8037
 31
0.0
  0
LINE
  8
0
 62
     0
 10
20.869
 20
31.8037
 30
0.0
 11
21.6697
 21
31.8037
 31
0.0
  0
LINE
  8
0
 62
     0
 10
21.6697
 20
31.8037
 30
0.0
 11
21.6697
 21
26.0036
 31
0.0
  0
LINE
  8
0
 62
     0
 10
21.6697
 20
26.0036
 30
0.0
 11
20.869
 21
26.0036
 31
0.0
  0
LINE
  8
0
 62
     0
 10
20.869
 20
26.0036
 30
0.0
 11
20.869
 21
22.9044
 31
0.0
  0
LINE
  8
0
 62
     0
 10
20.869
 20
22.9044
 30
0.0
 11
21.6697
 21
22.9044
 31
0.0
  0
LINE
  8
0
 62
     0
 10
21.6697
 20
22.9044
 30
0.0
 11
21.6697
 21
21.9039
 31
0.0
  0
LINE
  8
0
 62
     0
 10
21.6697
 20
21.9039
 30
0.0
 11
35.669
 21
21.9039
 31
0.0
  0
LINE
  8
0
 62
     0
 10
35.669
 20
21.9039
 30
0.0
 11
35.669
 21
22.9044
 31
0.0
  0
LINE
  8
0
 62
     0
 10
35.669
 20
22.9044
 30
0.0
 11
36.4698
 21
22.9044
 31
0.0
  0
LINE
  8
0
 62
     0
 10
36.4698
 20
22.9044
 30
0.0
 11
36.4698
 21
26.0036
 31
0.0
  0
LINE
  8
0
 62
     0
 10
36.4698
 20
26.0036
 30
0.0
 11
35.669
 21
26.0036
 31
0.0
  0
LINE
  8
0
 62
     0
 10
35.669
 20
26.0036
 30
0.0
 11
35.669
 21
31.8037
 31
0.0
  0
LINE
  8
0
 62
     0
 10
35.669
 20
31.8037
 30
0.0
 11
36.4698
 21
31.8037
 31
0.0
  0
LINE
  8
0
 62
     0
 10
36.4698
 20
31.8037
 30
0.0
 11
36.4698
 21
34.9043
 31
0.0
  0
LINE
  8
0
 62
     0
 10
36.4698
 20
34.9043
 30
0.0
 11
35.669
 21
34.9043
 31
0.0
  0
LINE
  8
0
 62
     0
 10
35.669
 20
34.9043
 30
0.0
 11
35.669
 21
35.9033
 31
0.0
  0
LINE
  8
0
 62
     0
 10
35.669
 20
35.9033
 30
0.0
 11
21.6697
 21
35.9033
 31
0.0
  0
LINE
  8
0
 62
     0
 10
40.7197
 20
35.9033
 30
0.0
 11
40.7197
 21
34.9043
 31
0.0
  0
LINE
  8
0
 62
     0
 10
40.7197
 20
34.9043
 30
0.0
 11
39.9189
 21
34.9043
 31
0.0
  0
LINE
  8
0
 62
     0
 10
39.9189
 20
34.9043
 30
0.0
 11
39.9189
 21
31.8037
 31
0.0
  0
LINE
  8
0
 62
     0
 10
39.9189
 20
31.8037
 30
0.0
 11
40.7197
 21
31.8037
 31
0.0
  0
LINE
  8
0
 62
     0
 10
40.7197
 20
31.8037
 30
0.0
 11
40.7197
 21
26.0036
 31
0.0
  0
LINE
  8
0
 62
     0
 10
40.7197
 20
26.0036
 30
0.0
 11
39.9189
 21
26.0036
 31
0.0
  0
LINE
  8
0
 62
     0
 10
39.9189
 20
26.0036
 30
0.0
 11
39.9189
 21
22.9044
 31
0.0
  0
LINE
  8
0
 62
     0
 10
39.9189
 20
22.9044
 30
0.0
 11
40.7197
 21
22.9044
 31
0.0
  0
LINE
  8
0
 62
     0
 10
40.7197
 20
22.9044
 30
0.0
 11
40.7197
 21
21.9039
 31
0.0
  0
LINE
  8
0
 62
     0
 10
40.7197
 20
21.9039
 30
0.0
 11
54.719
 21
21.9039
 31
0.0
  0
LINE
  8
0
 62
     0
 10
54.719
 20
21.9039
 30
0.0
 11
54.719
 21
22.9044
 31
0.0
  0
LINE
  8
0
 62
     0
 10
54.719
 20
22.9044
 30
0.0
 11
55.5198
 21
22.9044
 31
0.0
  0
LINE
  8
0
 62
     0
 10
55.5198
 20
22.9044
 30
0.0
 11
55.5198
 21
26.0036
 31
0.0
  0
LINE
  8
0
 62
     0
 10
55.5198
 20
26.0036
 30
0.0
 11
54.719
 21
26.0036
 31
0.0
  0
LINE
  8
0
 62
     0
 10
54.719
 20
26.0036
 30
0.0
 11
54.719
 21
31.8037
 31
0.0
  0
LINE
  8
0
 62
     0
 10
54.719
 20
31.8037
 30
0.0
 11
55.5198
 21
31.8037
 31
0.0
  0
LINE
  8
0
 62
     0
 10
55.5198
 20
31.8037
 30
0.0
 11
55.5198
 21
34.9043
 31
0.0
  0
LINE
  8
0
 62
     0
 10
55.5198
 20
34.9043
 30
0.0
 11
54.719
 21
34.9043
 31
0.0
  0
LINE
  8
0
 62
     0
 10
54.719
 20
34.9043
 30
0.0
 11
54.719
 21
35.9033
 31
0.0
  0
LINE
  8
0
 62
     0
 10
54.719
 20
35.9033
 30
0.0
 11
40.7197
 21
35.9033
 31
0.0
  0
LINE
  8
0
 62
     0
 10
82.6301
 20
35.9033
 30
0.0
 11
82.6301
 21
34.9043
 31
0.0
  0
LINE
  8
0
 62
     0
 10
82.6301
 20
34.9043
 30
0.0
 11
81.8293
 21
34.9043
 31
0.0
  0
LINE
  8
0
 62
     0
 10
81.8293
 20
34.9043
 30
0.0
 11
81.8293
 21
31.8037
 31
0.0
  0
LINE
  8
0
 62
     0
 10
81.8293
 20
31.8037
 30
0.0
 11
82.6301
 21
31.8037
 31
0.0
  0
LINE
  8
0
 62
     0
 10
82.6301
 20
31.8037
 30
0.0
 11
82.6301
 21
26.0036
 31
0.0
  0
LINE
  8
0
 62
     0
 10
82.6301
 20
26.0036
 30
0.0
 11
81.8293
 21
26.0036
 31
0.0
  0
LINE
  8
0
 62
     0
 10
81.8293
 20
26.0036
 30
0.0
 11
81.8293
 21
22.9044
 31
0.0
  0
LINE
  8
0
 62
     0
 10
81.8293
 20
22.9044
 30
0.0
 11
82.6301
 21
22.9044
 31
0.0
  0
LINE
  8
0
 62
     0
 10
82.6301
 20
22.9044
 30
0.0
 11
82.6301
 21
21.9039
 31
0.0
  0
LINE
  8
0
 62
     0
 10
82.6301
 20
21.9039
 30
0.0
 11
96.6294
 21
21.9039
 31
0.0
  0
LINE
  8
0
 62
     0
 10
96.6294
 20
21.9039
 30
0.0
 11
96.6294
 21
22.9044
 31
0.0
  0
LINE
  8
0
 62
     0
 10
96.6294
 20
22.9044
 30
0.0
 11
97.4302
 21
22.9044
 31
0.0
  0
LINE
  8
0
 62
     0
 10
97.4302
 20
22.9044
 30
0.0
 11
97.4302
 21
26.0036
 31
0.0
  0
LINE
  8
0
 62
     0
 10
97.4302
 20
26.0036
 30
0.0
 11
96.6294
 21
26.0036
 31
0.0
  0
LINE
  8
0
 62
     0
 10
96.6294
 20
26.0036
 30
0.0
 11
96.6294
 21
31.8037
 31
0.0
  0
LINE
  8
0
 62
     0
 10
96.6294
 20
31.8037
 30
0.0
 11
97.4302
 21
31.8037
 31
0.0
  0
LINE
  8
0
 62
     0
 10
97.4302
 20
31.8037
 30
0.0
 11
97.4302
 21
34.9043
 31
0.0
  0
LINE
  8
0
 62
     0
 10
97.4302
 20
34.9043
 30
0.0
 11
96.6294
 21
34.9043
 31
0.0
  0
LINE
  8
0
 62
     0
 10
96.6294
 20
34.9043
 30
0.0
 11
96.6294
 21
35.9033
 31
0.0
  0
LINE
  8
0
 62
     0
 10
96.6294
 20
35.9033
 30
0.0
 11
82.6301
 21
35.9033
 31
0.0
  0
LINE
  8
0
 62
     0
 10
2.61965
 20
54.9533
 30
0.0
 11
2.61965
 21
53.9542
 31
0.0
  0
LINE
  8
0
 62
     0
 10
2.61965
 20
53.9542
 30
0.0
 11
1.81901
 21
53.9542
 31
0.0
  0
LINE
  8
0
 62
     0
 10
1.81901
 20
53.9542
 30
0.0
 11
1.81901
 21
50.8536
 31
0.0
  0
LINE
  8
0
 62
     0
 10
1.81901
 20
50.8536
 30
0.0
 11
2.61965
 21
50.8536
 31
0.0
  0
LINE
  8
0
 62
     0
 10
2.61965
 20
50.8536
 30
0.0
 11
2.61965
 21
45.0536
 31
0.0
  0
LINE
  8
0
 62
     0
 10
2.61965
 20
45.0536
 30
0.0
 11
1.81901
 21
45.0536
 31
0.0
  0
LINE
  8
0
 62
     0
 10
1.81901
 20
45.0536
 30
0.0
 11
1.81901
 21
41.9545
 31
0.0
  0
LINE
  8
0
 62
     0
 10
1.81901
 20
41.9545
 30
0.0
 11
2.61965
 21
41.9545
 31
0.0
  0
LINE
  8
0
 62
     0
 10
2.61965
 20
41.9545
 30
0.0
 11
2.61965
 21
40.954
 31
0.0
  0
LINE
  8
0
 62
     0
 10
2.61965
 20
40.954
 30
0.0
 11
16.6192
 21
40.954
 31
0.0
  0
LINE
  8
0
 62
     0
 10
16.6192
 20
40.954
 30
0.0
 11
16.6192
 21
41.9545
 31
0.0
  0
LINE
  8
0
 62
     0
 10
16.6192
 20
41.9545
 30
0.0
 11
17.4198
 21
41.9545
 31
0.0
  0
LINE
  8
0
 62
     0
 10
17.4198
 20
41.9545
 30
0.0
 11
17.4198
 21
45.0536
 31
0.0
  0
LINE
  8
0
 62
     0
 10
17.4198
 20
45.0536
 30
0.0
 11
16.6192
 21
45.0536
 31
0.0
  0
LINE
  8
0
 62
     0
 10
16.6192
 20
45.0536
 30
0.0
 11
16.6192
 21
50.8536
 31
0.0
  0
LINE
  8
0
 62
     0
 10
16.6192
 20
50.8536
 30
0.0
 11
17.4198
 21
50.8536
 31
0.0
  0
LINE
  8
0
 62
     0
 10
17.4198
 20
50.8536
 30
0.0
 11
17.4198
 21
53.9542
 31
0.0
  0
LINE
  8
0
 62
     0
 10
17.4198
 20
53.9542
 30
0.0
 11
16.6192
 21
53.9542
 31
0.0
  0
LINE
  8
0
 62
     0
 10
16.6192
 20
53.9542
 30
0.0
 11
16.6192
 21
54.9533
 31
0.0
  0
LINE
  8
0
 62
     0
 10
16.6192
 20
54.9533
 30
0.0
 11
2.61965
 21
54.9533
 31
0.0
  0
LINE
  8
0
 62
     0
 10
21.6697
 20
54.9533
 30
0.0
 11
21.6697
 21
53.9542
 31
0.0
  0
LINE
  8
0
 62
     0
 10
21.6697
 20
53.9542
 30
0.0
 11
20.869
 21
53.9542
 31
0.0
  0
LINE
  8
0
 62
     0
 10
20.869
 20
53.9542
 30
0.0
 11
20.869
 21
50.8536
 31
0.0
  0
LINE
  8
0
 62
     0
 10
20.869
 20
50.8536
 30
0.0
 11
21.6697
 21
50.8536
 31
0.0
  0
LINE
  8
0
 62
     0
 10
21.6697
 20
50.8536
 30
0.0
 11
21.6697
 21
45.0536
 31
0.0
  0
LINE
  8
0
 62
     0
 10
21.6697
 20
45.0536
 30
0.0
 11
20.869
 21
45.0536
 31
0.0
  0
LINE
  8
0
 62
     0
 10
20.869
 20
45.0536
 30
0.0
 11
20.869
 21
41.9545
 31
0.0
  0
LINE
  8
0
 62
     0
 10
20.869
 20
41.9545
 30
0.0
 11
21.6697
 21
41.9545
 31
0.0
  0
LINE
  8
0
 62
     0
 10
21.6697
 20
41.9545
 30
0.0
 11
21.6697
 21
40.954
 31
0.0
  0
LINE
  8
0
 62
     0
 10
21.6697
 20
40.954
 30
0.0
 11
35.669
 21
40.954
 31
0.0
  0
LINE
  8
0
 62
     0
 10
35.669
 20
40.954
 30
0.0
 11
35.669
 21
41.9545
 31
0.0
  0
LINE
  8
0
 62
     0
 10
35.669
 20
41.9545
 30
0.0
 11
36.4698
 21
41.9545
 31
0.0
  0
LINE
  8
0
 62
     0
 10
36.4698
 20
41.9545
 30
0.0
 11
36.4698
 21
45.0536
 31
0.0
  0
LINE
  8
0
 62
     0
 10
36.4698
 20
45.0536
 30
0.0
 11
35.669
 21
45.0536
 31
0.0
  0
LINE
  8
0
 62
     0
 10
35.669
 20
45.0536
 30
0.0
 11
35.669
 21
50.8536
 31
0.0
  0
LINE
  8
0
 62
     0
 10
35.669
 20
50.8536
 30
0.0
 11
36.4698
 21
50.8536
 31
0.0
  0
LINE
  8
0
 62
     0
 10
36.4698
 20
50.8536
 30
0.0
 11
36.4698
 21
53.9542
 31
0.0
  0
LINE
  8
0
 62
     0
 10
36.4698
 20
53.9542
 30
0.0
 11
35.669
 21
53.9542
 31
0.0
  0
LINE
  8
0
 62
     0
 10
35.669
 20
53.9542
 30
0.0
 11
35.669
 21
54.9533
 31
0.0
  0
LINE
  8
0
 62
     0
 10
35.669
 20
54.9533
 30
0.0
 11
21.6697
 21
54.9533
 31
0.0
  0
LINE
  8
0
 62
     0
 10
40.7197
 20
54.9533
 30
0.0
 11
40.7197
 21
53.9542
 31
0.0
  0
LINE
  8
0
 62
     0
 10
40.7197
 20
53.9542
 30
0.0
 11
39.9189
 21
53.9542
 31
0.0
  0
LINE
  8
0
 62
     0
 10
39.9189
 20
53.9542
 30
0.0
 11
39.9189
 21
50.8536
 31
0.0
  0
LINE
  8
0
 62
     0
 10
39.9189
 20
50.8536
 30
0.0
 11
40.7197
 21
50.8536
 31
0.0
  0
LINE
  8
0
 62
     0
 10
40.7197
 20
50.8536
 30
0.0
 11
40.7197
 21
45.0536
 31
0.0
  0
LINE
  8
0
 62
     0
 10
40.7197
 20
45.0536
 30
0.0
 11
39.9189
 21
45.0536
 31
0.0
  0
LINE
  8
0
 62
     0
 10
39.9189
 20
45.0536
 30
0.0
 11
39.9189
 21
41.9545
 31
0.0
  0
LINE
  8
0
 62
     0
 10
39.9189
 20
41.9545
 30
0.0
 11
40.7197
 21
41.9545
 31
0.0
  0
LINE
  8
0
 62
     0
 10
40.7197
 20
41.9545
 30
0.0
 11
40.7197
 21
40.954
 31
0.0
  0
LINE
  8
0
 62
     0
 10
40.7197
 20
40.954
 30
0.0
 11
54.719
 21
40.954
 31
0.0
  0
LINE
  8
0
 62
     0
 10
54.719
 20
40.954
 30
0.0
 11
54.719
 21
41.9545
 31
0.0
  0
LINE
  8
0
 62
     0
 10
54.719
 20
41.9545
 30
0.0
 11
55.5198
 21
41.9545
 31
0.0
  0
LINE
  8
0
 62
     0
 10
55.5198
 20
41.9545
 30
0.0
 11
55.5198
 21
45.0536
 31
0.0
  0
LINE
  8
0
 62
     0
 10
55.5198
 20
45.0536
 30
0.0
 11
54.719
 21
45.0536
 31
0.0
  0
LINE
  8
0
 62
     0
 10
54.719
 20
45.0536
 30
0.0
 11
54.719
 21
50.8536
 31
0.0
  0
LINE
  8
0
 62
     0
 10
54.719
 20
50.8536
 30
0.0
 11
55.5198
 21
50.8536
 31
0.0
  0
LINE
  8
0
 62
     0
 10
55.5198
 20
50.8536
 30
0.0
 11
55.5198
 21
53.9542
 31
0.0
  0
LINE
  8
0
 62
     0
 10
55.5198
 20
53.9542
 30
0.0
 11
54.719
 21
53.9542
 31
0.0
  0
LINE
  8
0
 62
     0
 10
54.719
 20
53.9542
 30
0.0
 11
54.719
 21
54.9533
 31
0.0
  0
LINE
  8
0
 62
     0
 10
54.719
 20
54.9533
 30
0.0
 11
40.7197
 21
54.9533
 31
0.0
  0
LINE
  8
0
 62
     0
 10
82.6301
 20
54.9533
 30
0.0
 11
82.6301
 21
53.9542
 31
0.0
  0
LINE
  8
0
 62
     0
 10
82.6301
 20
53.9542
 30
0.0
 11
81.8293
 21
53.9542
 31
0.0
  0
LINE
  8
0
 62
     0
 10
81.8293
 20
53.9542
 30
0.0
 11
81.8293
 21
50.8536
 31
0.0
  0
LINE
  8
0
 62
     0
 10
81.8293
 20
50.8536
 30
0.0
 11
82.6301
 21
50.8536
 31
0.0
  0
LINE
  8
0
 62
     0
 10
82.6301
 20
50.8536
 30
0.0
 11
82.6301
 21
45.0536
 31
0.0
  0
LINE
  8
0
 62
     0
 10
82.6301
 20
45.0536
 30
0.0
 11
81.8293
 21
45.0536
 31
0.0
  0
LINE
  8
0
 62
     0
 10
81.8293
 20
45.0536
 30
0.0
 11
81.8293
 21
41.9545
 31
0.0
  0
LINE
  8
0
 62
     0
 10
81.8293
 20
41.9545
 30
0.0
 11
82.6301
 21
41.9545
 31
0.0
  0
LINE
  8
0
 62
     0
 10
82.6301
 20
41.9545
 30
0.0
 11
82.6301
 21
40.954
 31
0.0
  0
LINE
  8
0
 62
     0
 10
82.6301
 20
40.954
 30
0.0
 11
96.6294
 21
40.954
 31
0.0
  0
LINE
  8
0
 62
     0
 10
96.6294
 20
40.954
 30
0.0
 11
96.6294
 21
41.9545
 31
0.0
  0
LINE
  8
0
 62
     0
 10
96.6294
 20
41.9545
 30
0.0
 11
97.4302
 21
41.9545
 31
0.0
  0
LINE
  8
0
 62
     0
 10
97.4302
 20
41.9545
 30
0.0
 11
97.4302
 21
45.0536
 31
0.0
  0
LINE
  8
0
 62
     0
 10
97.4302
 20
45.0536
 30
0.0
 11
96.6294
 21
45.0536
 31
0.0
  0
LINE
  8
0
 62
     0
 10
96.6294
 20
45.0536
 30
0.0
 11
96.6294
 21
50.8536
 31
0.0
  0
LINE
  8
0
 62
     0
 10
96.6294
 20
50.8536
 30
0.0
 11
97.4302
 21
50.8536
 31
0.0
  0
LINE
  8
0
 62
     0
 10
97.4302
 20
50.8536
 30
0.0
 11
97.4302
 21
53.9542
 31
0.0
  0
LINE
  8
0
 62
     0
 10
97.4302
 20
53.9542
 30
0.0
 11
96.6294
 21
53.9542
 31
0.0
  0
LINE
  8
0
 62
     0
 10
96.6294
 20
53.9542
 30
0.0
 11
96.6294
 21
54.9533
 31
0.0
  0
LINE
  8
0
 62
     0
 10
96.6294
 20
54.9533
 30
0.0
 11
82.6301
 21
54.9533
 31
0.0
  0
LINE
  8
0
 62
     0
 10
66.27
 20
73.5789
 30
0.0
 11
66.27
 21
72.7534
 31
0.0
  0
LINE
  8
0
 62
     0
 10
66.27
 20
72.7534
 30
0.0
 11
59.9997
 21
72.7534
 31
0.0
  0
LINE
  8
0
 62
     0
 10
59.9997
 20
72.7534
 30
0.0
 11
59.9997
 21
71.0283
 31
0.0
  0
LINE
  8
0
 62
     0
 10
59.9997
 20
71.0283
 30
0.0
 11
59.0201
 21
71.0283
 31
0.0
  0
LINE
  8
0
 62
     0
 10
59.0201
 20
71.0283
 30
0.0
 11
59.0201
 21
67.7291
 31
0.0
  0
LINE
  8
0
 62
     0
 10
59.0201
 20
67.7291
 30
0.0
 11
59.9997
 21
67.7291
 31
0.0
  0
LINE
  8
0
 62
     0
 10
59.9997
 20
67.7291
 30
0.0
 11
59.9997
 21
66.004
 31
0.0
  0
LINE
  8
0
 62
     0
 10
59.9997
 20
66.004
 30
0.0
 11
64.4701
 21
66.004
 31
0.0
  0
LINE
  8
0
 62
     0
 10
64.4701
 20
66.004
 30
0.0
 11
64.4701
 21
64.4783
 31
0.0
  0
LINE
  8
0
 62
     0
 10
64.4701
 20
64.4783
 30
0.0
 11
63.8679
 21
64.4783
 31
0.0
  0
LINE
  8
0
 62
     0
 10
63.8679
 20
64.4783
 30
0.0
 11
63.8679
 21
65.2791
 31
0.0
  0
LINE
  8
0
 62
     0
 10
63.8679
 20
65.2791
 30
0.0
 11
60.7702
 21
65.2791
 31
0.0
  0
LINE
  8
0
 62
     0
 10
60.7702
 20
65.2791
 30
0.0
 11
60.7702
 21
64.4783
 31
0.0
  0
LINE
  8
0
 62
     0
 10
60.7702
 20
64.4783
 30
0.0
 11
59.7697
 21
64.4783
 31
0.0
  0
LINE
  8
0
 62
     0
 10
59.7697
 20
64.4783
 30
0.0
 11
59.7697
 21
50.479
 31
0.0
  0
LINE
  8
0
 62
     0
 10
59.7697
 20
50.479
 30
0.0
 11
60.7702
 21
50.479
 31
0.0
  0
LINE
  8
0
 62
     0
 10
60.7702
 20
50.479
 30
0.0
 11
60.7702
 21
49.6782
 31
0.0
  0
LINE
  8
0
 62
     0
 10
60.7702
 20
49.6782
 30
0.0
 11
63.8679
 21
49.6782
 31
0.0
  0
LINE
  8
0
 62
     0
 10
63.8679
 20
49.6782
 30
0.0
 11
63.8679
 21
50.479
 31
0.0
  0
LINE
  8
0
 62
     0
 10
63.8679
 20
50.479
 30
0.0
 11
64.4701
 21
50.479
 31
0.0
  0
LINE
  8
0
 62
     0
 10
64.4701
 20
50.479
 30
0.0
 11
64.4701
 21
48.9536
 31
0.0
  0
LINE
  8
0
 62
     0
 10
64.4701
 20
48.9536
 30
0.0
 11
59.9997
 21
48.9536
 31
0.0
  0
LINE
  8
0
 62
     0
 10
59.9997
 20
48.9536
 30
0.0
 11
59.9997
 21
47.2295
 31
0.0
  0
LINE
  8
0
 62
     0
 10
59.9997
 20
47.2295
 30
0.0
 11
59.0201
 21
47.2295
 31
0.0
  0
LINE
  8
0
 62
     0
 10
59.0201
 20
47.2295
 30
0.0
 11
59.0201
 21
43.9289
 31
0.0
  0
LINE
  8
0
 62
     0
 10
59.0201
 20
43.9289
 30
0.0
 11
59.9997
 21
43.9289
 31
0.0
  0
LINE
  8
0
 62
     0
 10
59.9997
 20
43.9289
 30
0.0
 11
59.9997
 21
42.2039
 31
0.0
  0
LINE
  8
0
 62
     0
 10
59.9997
 20
42.2039
 30
0.0
 11
66.27
 21
42.2039
 31
0.0
  0
LINE
  8
0
 62
     0
 10
66.27
 20
42.2039
 30
0.0
 11
66.27
 21
41.3784
 31
0.0
  0
LINE
  8
0
 62
     0
 10
66.27
 20
41.3784
 30
0.0
 11
69.07
 21
41.3784
 31
0.0
  0
LINE
  8
0
 62
     0
 10
69.07
 20
41.3784
 30
0.0
 11
69.07
 21
42.2039
 31
0.0
  0
LINE
  8
0
 62
     0
 10
69.07
 20
42.2039
 30
0.0
 11
72.3
 21
42.2039
 31
0.0
  0
LINE
  8
0
 62
     0
 10
72.3
 20
42.2039
 30
0.0
 11
72.3
 21
43.9289
 31
0.0
  0
LINE
  8
0
 62
     0
 10
72.3
 20
43.9289
 30
0.0
 11
73.2194
 21
43.9289
 31
0.0
  0
LINE
  8
0
 62
     0
 10
73.2194
 20
43.9289
 30
0.0
 11
73.2194
 21
47.2295
 31
0.0
  0
LINE
  8
0
 62
     0
 10
73.2194
 20
47.2295
 30
0.0
 11
72.3
 21
47.2295
 31
0.0
  0
LINE
  8
0
 62
     0
 10
72.3
 20
47.2295
 30
0.0
 11
72.3
 21
48.9536
 31
0.0
  0
LINE
  8
0
 62
     0
 10
72.3
 20
48.9536
 30
0.0
 11
69.07
 21
48.9536
 31
0.0
  0
LINE
  8
0
 62
     0
 10
69.07
 20
48.9536
 30
0.0
 11
69.07
 21
50.479
 31
0.0
  0
LINE
  8
0
 62
     0
 10
69.07
 20
50.479
 30
0.0
 11
69.6694
 21
50.479
 31
0.0
  0
LINE
  8
0
 62
     0
 10
69.6694
 20
50.479
 30
0.0
 11
69.6694
 21
49.6782
 31
0.0
  0
LINE
  8
0
 62
     0
 10
69.6694
 20
49.6782
 30
0.0
 11
72.7699
 21
49.6782
 31
0.0
  0
LINE
  8
0
 62
     0
 10
72.7699
 20
49.6782
 30
0.0
 11
72.7699
 21
50.479
 31
0.0
  0
LINE
  8
0
 62
     0
 10
72.7699
 20
50.479
 30
0.0
 11
73.769
 21
50.479
 31
0.0
  0
LINE
  8
0
 62
     0
 10
73.769
 20
50.479
 30
0.0
 11
73.769
 21
64.4783
 31
0.0
  0
LINE
  8
0
 62
     0
 10
73.769
 20
64.4783
 30
0.0
 11
72.7699
 21
64.4783
 31
0.0
  0
LINE
  8
0
 62
     0
 10
72.7699
 20
64.4783
 30
0.0
 11
72.7699
 21
65.2791
 31
0.0
  0
LINE
  8
0
 62
     0
 10
72.7699
 20
65.2791
 30
0.0
 11
69.6694
 21
65.2791
 31
0.0
  0
LINE
  8
0
 62
     0
 10
69.6694
 20
65.2791
 30
0.0
 11
69.6694
 21
64.4783
 31
0.0
  0
LINE
  8
0
 62
     0
 10
69.6694
 20
64.4783
 30
0.0
 11
69.07
 21
64.4783
 31
0.0
  0
LINE
  8
0
 62
     0
 10
69.07
 20
64.4783
 30
0.0
 11
69.07
 21
66.004
 31
0.0
  0
LINE
  8
0
 62
     0
 10
69.07
 20
66.004
 30
0.0
 11
72.3
 21
66.004
 31
0.0
  0
LINE
  8
0
 62
     0
 10
72.3
 20
66.004
 30
0.0
 11
72.3
 21
67.7291
 31
0.0
  0
LINE
  8
0
 62
     0
 10
72.3
 20
67.7291
 30
0.0
 11
73.2194
 21
67.7291
 31
0.0
  0
LINE
  8
0
 62
     0
 10
73.2194
 20
67.7291
 30
0.0
 11
73.2194
 21
71.0283
 31
0.0
  0
LINE
  8
0
 62
     0
 10
73.2194
 20
71.0283
 30
0.0
 11
72.3
 21
71.0283
 31
0.0
  0
LINE
  8
0
 62
     0
 10
72.3
 20
71.0283
 30
0.0
 11
72.3
 21
72.7534
 31
0.0
  0
LINE
  8
0
 62
     0
 10
72.3
 20
72.7534
 30
0.0
 11
69.07
 21
72.7534
 31
0.0
  0
LINE
  8
0
 62
     0
 10
69.07
 20
72.7534
 30
0.0
 11
69.07
 21
73.5789
 31
0.0
  0
LINE
  8
0
 62
     0
 10
69.07
 20
73.5789
 30
0.0
 11
66.27
 21
73.5789
 31
0.0
  0
LINE
  8
0
 62
     0
 10
2.61965
 20
74.0033
 30
0.0
 11
2.61965
 21
73.0042
 31
0.0
  0
LINE
  8
0
 62
     0
 10
2.61965
 20
73.0042
 30
0.0
 11
1.81901
 21
73.0042
 31
0.0
  0
LINE
  8
0
 62
     0
 10
1.81901
 20
73.0042
 30
0.0
 11
1.81901
 21
69.9036
 31
0.0
  0
LINE
  8
0
 62
     0
 10
1.81901
 20
69.9036
 30
0.0
 11
2.61965
 21
69.9036
 31
0.0
  0
LINE
  8
0
 62
     0
 10
2.61965
 20
69.9036
 30
0.0
 11
2.61965
 21
64.1036
 31
0.0
  0
LINE
  8
0
 62
     0
 10
2.61965
 20
64.1036
 30
0.0
 11
1.81901
 21
64.1036
 31
0.0
  0
LINE
  8
0
 62
     0
 10
1.81901
 20
64.1036
 30
0.0
 11
1.81901
 21
61.0044
 31
0.0
  0
LINE
  8
0
 62
     0
 10
1.81901
 20
61.0044
 30
0.0
 11
2.61965
 21
61.0044
 31
0.0
  0
LINE
  8
0
 62
     0
 10
2.61965
 20
61.0044
 30
0.0
 11
2.61965
 21
60.004
 31
0.0
  0
LINE
  8
0
 62
     0
 10
2.61965
 20
60.004
 30
0.0
 11
16.6192
 21
60.004
 31
0.0
  0
LINE
  8
0
 62
     0
 10
16.6192
 20
60.004
 30
0.0
 11
16.6192
 21
61.0044
 31
0.0
  0
LINE
  8
0
 62
     0
 10
16.6192
 20
61.0044
 30
0.0
 11
17.4198
 21
61.0044
 31
0.0
  0
LINE
  8
0
 62
     0
 10
17.4198
 20
61.0044
 30
0.0
 11
17.4198
 21
64.1036
 31
0.0
  0
LINE
  8
0
 62
     0
 10
17.4198
 20
64.1036
 30
0.0
 11
16.6192
 21
64.1036
 31
0.0
  0
LINE
  8
0
 62
     0
 10
16.6192
 20
64.1036
 30
0.0
 11
16.6192
 21
69.9036
 31
0.0
  0
LINE
  8
0
 62
     0
 10
16.6192
 20
69.9036
 30
0.0
 11
17.4198
 21
69.9036
 31
0.0
  0
LINE
  8
0
 62
     0
 10
17.4198
 20
69.9036
 30
0.0
 11
17.4198
 21
73.0042
 31
0.0
  0
LINE
  8
0
 62
     0
 10
17.4198
 20
73.0042
 30
0.0
 11
16.6192
 21
73.0042
 31
0.0
  0
LINE
  8
0
 62
     0
 10
16.6192
 20
73.0042
 30
0.0
 11
16.6192
 21
74.0033
 31
0.0
  0
LINE
  8
0
 62
     0
 10
16.6192
 20
74.0033
 30
0.0
 11
2.61965
 21
74.0033
 31
0.0
  0
LINE
  8
0
 62
     0
 10
21.6697
 20
74.0033
 30
0.0
 11
21.6697
 21
73.0042
 31
0.0
  0
LINE
  8
0
 62
     0
 10
21.6697
 20
73.0042
 30
0.0
 11
20.869
 21
73.0042
 31
0.0
  0
LINE
  8
0
 62
     0
 10
20.869
 20
73.0042
 30
0.0
 11
20.869
 21
69.9036
 31
0.0
  0
LINE
  8
0
 62
     0
 10
20.869
 20
69.9036
 30
0.0
 11
21.6697
 21
69.9036
 31
0.0
  0
LINE
  8
0
 62
     0
 10
21.6697
 20
69.9036
 30
0.0
 11
21.6697
 21
64.1036
 31
0.0
  0
LINE
  8
0
 62
     0
 10
21.6697
 20
64.1036
 30
0.0
 11
20.869
 21
64.1036
 31
0.0
  0
LINE
  8
0
 62
     0
 10
20.869
 20
64.1036
 30
0.0
 11
20.869
 21
61.0044
 31
0.0
  0
LINE
  8
0
 62
     0
 10
20.869
 20
61.0044
 30
0.0
 11
21.6697
 21
61.0044
 31
0.0
  0
LINE
  8
0
 62
     0
 10
21.6697
 20
61.0044
 30
0.0
 11
21.6697
 21
60.004
 31
0.0
  0
LINE
  8
0
 62
     0
 10
21.6697
 20
60.004
 30
0.0
 11
35.669
 21
60.004
 31
0.0
  0
LINE
  8
0
 62
     0
 10
35.669
 20
60.004
 30
0.0
 11
35.669
 21
61.0044
 31
0.0
  0
LINE
  8
0
 62
     0
 10
35.669
 20
61.0044
 30
0.0
 11
36.4698
 21
61.0044
 31
0.0
  0
LINE
  8
0
 62
     0
 10
36.4698
 20
61.0044
 30
0.0
 11
36.4698
 21
64.1036
 31
0.0
  0
LINE
  8
0
 62
     0
 10
36.4698
 20
64.1036
 30
0.0
 11
35.669
 21
64.1036
 31
0.0
  0
LINE
  8
0
 62
     0
 10
35.669
 20
64.1036
 30
0.0
 11
35.669
 21
69.9036
 31
0.0
  0
LINE
  8
0
 62
     0
 10
35.669
 20
69.9036
 30
0.0
 11
36.4698
 21
69.9036
 31
0.0
  0
LINE
  8
0
 62
     0
 10
36.4698
 20
69.9036
 30
0.0
 11
36.4698
 21
73.0042
 31
0.0
  0
LINE
  8
0
 62
     0
 10
36.4698
 20
73.0042
 30
0.0
 11
35.669
 21
73.0042
 31
0.0
  0
LINE
  8
0
 62
     0
 10
35.669
 20
73.0042
 30
0.0
 11
35.669
 21
74.0033
 31
0.0
  0
LINE
  8
0
 62
     0
 10
35.669
 20
74.0033
 30
0.0
 11
21.6697
 21
74.0033
 31
0.0
  0
LINE
  8
0
 62
     0
 10
40.7197
 20
74.0033
 30
0.0
 11
40.7197
 21
73.0042
 31
0.0
  0
LINE
  8
0
 62
     0
 10
40.7197
 20
73.0042
 30
0.0
 11
39.9189
 21
73.0042
 31
0.0
  0
LINE
  8
0
 62
     0
 10
39.9189
 20
73.0042
 30
0.0
 11
39.9189
 21
69.9036
 31
0.0
  0
LINE
  8
0
 62
     0
 10
39.9189
 20
69.9036
 30
0.0
 11
40.7197
 21
69.9036
 31
0.0
  0
LINE
  8
0
 62
     0
 10
40.7197
 20
69.9036
 30
0.0
 11
40.7197
 21
64.1036
 31
0.0
  0
LINE
  8
0
 62
     0
 10
40.7197
 20
64.1036
 30
0.0
 11
39.9189
 21
64.1036
 31
0.0
  0
LINE
  8
0
 62
     0
 10
39.9189
 20
64.1036
 30
0.0
 11
39.9189
 21
61.0044
 31
0.0
  0
LINE
  8
0
 62
     0
 10
39.9189
 20
61.0044
 30
0.0
 11
40.7197
 21
61.0044
 31
0.0
  0
LINE
  8
0
 62
     0
 10
40.7197
 20
61.0044
 30
0.0
 11
40.7197
 21
60.004
 31
0.0
  0
LINE
  8
0
 62
     0
 10
40.7197
 20
60.004
 30
0.0
 11
54.719
 21
60.004
 31
0.0
  0
LINE
  8
0
 62
     0
 10
54.719
 20
60.004
 30
0.0
 11
54.719
 21
61.0044
 31
0.0
  0
LINE
  8
0
 62
     0
 10
54.719
 20
61.0044
 30
0.0
 11
55.5198
 21
61.0044
 31
0.0
  0
LINE
  8
0
 62
     0
 10
55.5198
 20
61.0044
 30
0.0
 11
55.5198
 21
64.1036
 31
0.0
  0
LINE
  8
0
 62
     0
 10
55.5198
 20
64.1036
 30
0.0
 11
54.719
 21
64.1036
 31
0.0
  0
LINE
  8
0
 62
     0
 10
54.719
 20
64.1036
 30
0.0
 11
54.719
 21
69.9036
 31
0.0
  0
LINE
  8
0
 62
     0
 10
54.719
 20
69.9036
 30
0.0
 11
55.5198
 21
69.9036
 31
0.0
  0
LINE
  8
0
 62
     0
 10
55.5198
 20
69.9036
 30
0.0
 11
55.5198
 21
73.0042
 31
0.0
  0
LINE
  8
0
 62
     0
 10
55.5198
 20
73.0042
 30
0.0
 11
54.719
 21
73.0042
 31
0.0
  0
LINE
  8
0
 62
     0
 10
54.719
 20
73.0042
 30
0.0
 11
54.719
 21
74.0033
 31
0.0
  0
LINE
  8
0
 62
     0
 10
54.719
 20
74.0033
 30
0.0
 11
40.7197
 21
74.0033
 31
0.0
  0
LINE
  8
0
 62
     0
 10
82.6301
 20
74.0033
 30
0.0
 11
82.6301
 21
73.0042
 31
0.0
  0
LINE
  8
0
 62
     0
 10
82.6301
 20
73.0042
 30
0.0
 11
81.8293
 21
73.0042
 31
0.0
  0
LINE
  8
0
 62
     0
 10
81.8293
 20
73.0042
 30
0.0
 11
81.8293
 21
69.9036
 31
0.0
  0
LINE
  8
0
 62
     0
 10
81.8293
 20
69.9036
 30
0.0
 11
82.6301
 21
69.9036
 31
0.0
  0
LINE
  8
0
 62
     0
 10
82.6301
 20
69.9036
 30
0.0
 11
82.6301
 21
64.1036
 31
0.0
  0
LINE
  8
0
 62
     0
 10
82.6301
 20
64.1036
 30
0.0
 11
81.8293
 21
64.1036
 31
0.0
  0
LINE
  8
0
 62
     0
 10
81.8293
 20
64.1036
 30
0.0
 11
81.8293
 21
61.0044
 31
0.0
  0
LINE
  8
0
 62
     0
 10
81.8293
 20
61.0044
 30
0.0
 11
82.6301
 21
61.0044
 31
0.0
  0
LINE
  8
0
 62
     0
 10
82.6301
 20
61.0044
 30
0.0
 11
82.6301
 21
60.004
 31
0.0
  0
LINE
  8
0
 62
     0
 10
82.6301
 20
60.004
 30
0.0
 11
96.6294
 21
60.004
 31
0.0
  0
LINE
  8
0
 62
     0
 10
96.6294
 20
60.004
 30
0.0
 11
96.6294
 21
61.0044
 31
0.0
  0
LINE
  8
0
 62
     0
 10
96.6294
 20
61.0044
 30
0.0
 11
97.4302
 21
61.0044
 31
0.0
  0
LINE
  8
0
 62
     0
 10
97.4302
 20
61.0044
 30
0.0
 11
97.4302
 21
64.1036
 31
0.0
  0
LINE
  8
0
 62
     0
 10
97.4302
 20
64.1036
 30
0.0
 11
96.6294
 21
64.1036
 31
0.0
  0
LINE
  8
0
 62
     0
 10
96.6294
 20
64.1036
 30
0.0
 11
96.6294
 21
69.9036
 31
0.0
  0
LINE
  8
0
 62
     0
 10
96.6294
 20
69.9036
 30
0.0
 11
97.4302
 21
69.9036
 31
0.0
  0
LINE
  8
0
 62
     0
 10
97.4302
 20
69.9036
 30
0.0
 11
97.4302
 21
73.0042
 31
0.0
  0
LINE
  8
0
 62
     0
 10
97.4302
 20
73.0042
 30
0.0
 11
96.6294
 21
73.0042
 31
0.0
  0
LINE
  8
0
 62
     0
 10
96.6294
 20
73.0042
 30
0.0
 11
96.6294
 21
74.0033
 31
0.0
  0
LINE
  8
0
 62
     0
 10
96.6294
 20
74.0033
 30
0.0
 11
82.6301
 21
74.0033
 31
0.0
  0
LINE
  8
0
 62
     0
 10
2.61965
 20
93.0547
 30
0.0
 11
2.61965
 21
92.0542
 31
0.0
  0
LINE
  8
0
 62
     0
 10
2.61965
 20
92.0542
 30
0.0
 11
1.81901
 21
92.0542
 31
0.0
  0
LINE
  8
0
 62
     0
 10
1.81901
 20
92.0542
 30
0.0
 11
1.81901
 21
88.9536
 31
0.0
  0
LINE
  8
0
 62
     0
 10
1.81901
 20
88.9536
 30
0.0
 11
2.61965
 21
88.9536
 31
0.0
  0
LINE
  8
0
 62
     0
 10
2.61965
 20
88.9536
 30
0.0
 11
2.61965
 21
83.1536
 31
0.0
  0
LINE
  8
0
 62
     0
 10
2.61965
 20
83.1536
 30
0.0
 11
1.81901
 21
83.1536
 31
0.0
  0
LINE
  8
0
 62
     0
 10
1.81901
 20
83.1536
 30
0.0
 11
1.81901
 21
80.0544
 31
0.0
  0
LINE
  8
0
 62
     0
 10
1.81901
 20
80.0544
 30
0.0
 11
2.61965
 21
80.0544
 31
0.0
  0
LINE
  8
0
 62
     0
 10
2.61965
 20
80.0544
 30
0.0
 11
2.61965
 21
79.054
 31
0.0
  0
LINE
  8
0
 62
     0
 10
2.61965
 20
79.054
 30
0.0
 11
16.6192
 21
79.054
 31
0.0
  0
LINE
  8
0
 62
     0
 10
16.6192
 20
79.054
 30
0.0
 11
16.6192
 21
80.0544
 31
0.0
  0
LINE
  8
0
 62
     0
 10
16.6192
 20
80.0544
 30
0.0
 11
17.4198
 21
80.0544
 31
0.0
  0
LINE
  8
0
 62
     0
 10
17.4198
 20
80.0544
 30
0.0
 11
17.4198
 21
83.1536
 31
0.0
  0
LINE
  8
0
 62
     0
 10
17.4198
 20
83.1536
 30
0.0
 11
16.6192
 21
83.1536
 31
0.0
  0
LINE
  8
0
 62
     0
 10
16.6192
 20
83.1536
 30
0.0
 11
16.6192
 21
88.9536
 31
0.0
  0
LINE
  8
0
 62
     0
 10
16.6192
 20
88.9536
 30
0.0
 11
17.4198
 21
88.9536
 31
0.0
  0
LINE
  8
0
 62
     0
 10
17.4198
 20
88.9536
 30
0.0
 11
17.4198
 21
92.0542
 31
0.0
  0
LINE
  8
0
 62
     0
 10
17.4198
 20
92.0542
 30
0.0
 11
16.6192
 21
92.0542
 31
0.0
  0
LINE
  8
0
 62
     0
 10
16.6192
 20
92.0542
 30
0.0
 11
16.6192
 21
93.0547
 31
0.0
  0
LINE
  8
0
 62
     0
 10
16.6192
 20
93.0547
 30
0.0
 11
2.61965
 21
93.0547
 31
0.0
  0
LINE
  8
0
 62
     0
 10
21.6697
 20
93.0547
 30
0.0
 11
21.6697
 21
92.0542
 31
0.0
  0
LINE
  8
0
 62
     0
 10
21.6697
 20
92.0542
 30
0.0
 11
20.869
 21
92.0542
 31
0.0
  0
LINE
  8
0
 62
     0
 10
20.869
 20
92.0542
 30
0.0
 11
20.869
 21
88.9536
 31
0.0
  0
LINE
  8
0
 62
     0
 10
20.869
 20
88.9536
 30
0.0
 11
21.6697
 21
88.9536
 31
0.0
  0
LINE
  8
0
 62
     0
 10
21.6697
 20
88.9536
 30
0.0
 11
21.6697
 21
83.1536
 31
0.0
  0
LINE
  8
0
 62
     0
 10
21.6697
 20
83.1536
 30
0.0
 11
20.869
 21
83.1536
 31
0.0
  0
LINE
  8
0
 62
     0
 10
20.869
 20
83.1536
 30
0.0
 11
20.869
 21
80.0544
 31
0.0
  0
LINE
  8
0
 62
     0
 10
20.869
 20
80.0544
 30
0.0
 11
21.6697
 21
80.0544
 31
0.0
  0
LINE
  8
0
 62
     0
 10
21.6697
 20
80.0544
 30
0.0
 11
21.6697
 21
79.054
 31
0.0
  0
LINE
  8
0
 62
     0
 10
21.6697
 20
79.054
 30
0.0
 11
35.669
 21
79.054
 31
0.0
  0
LINE
  8
0
 62
     0
 10
35.669
 20
79.054
 30
0.0
 11
35.669
 21
80.0544
 31
0.0
  0
LINE
  8
0
 62
     0
 10
35.669
 20
80.0544
 30
0.0
 11
36.4698
 21
80.0544
 31
0.0
  0
LINE
  8
0
 62
     0
 10
36.4698
 20
80.0544
 30
0.0
 11
36.4698
 21
83.1536
 31
0.0
  0
LINE
  8
0
 62
     0
 10
36.4698
 20
83.1536
 30
0.0
 11
35.669
 21
83.1536
 31
0.0
  0
LINE
  8
0
 62
     0
 10
35.669
 20
83.1536
 30
0.0
 11
35.669
 21
88.9536
 31
0.0
  0
LINE
  8
0
 62
     0
 10
35.669
 20
88.9536
 30
0.0
 11
36.4698
 21
88.9536
 31
0.0
  0
LINE
  8
0
 62
     0
 10
36.4698
 20
88.9536
 30
0.0
 11
36.4698
 21
92.0542
 31
0.0
  0
LINE
  8
0
 62
     0
 10
36.4698
 20
92.0542
 30
0.0
 11
35.669
 21
92.0542
 31
0.0
  0
LINE
  8
0
 62
     0
 10
35.669
 20
92.0542
 30
0.0
 11
35.669
 21
93.0547
 31
0.0
  0
LINE
  8
0
 62
     0
 10
35.669
 20
93.0547
 30
0.0
 11
21.6697
 21
93.0547
 31
0.0
  0
LINE
  8
0
 62
     0
 10
40.7197
 20
93.0547
 30
0.0
 11
40.7197
 21
92.0542
 31
0.0
  0
LINE
  8
0
 62
     0
 10
40.7197
 20
92.0542
 30
0.0
 11
39.9189
 21
92.0542
 31
0.0
  0
LINE
  8
0
 62
     0
 10
39.9189
 20
92.0542
 30
0.0
 11
39.9189
 21
88.9536
 31
0.0
  0
LINE
  8
0
 62
     0
 10
39.9189
 20
88.9536
 30
0.0
 11
40.7197
 21
88.9536
 31
0.0
  0
LINE
  8
0
 62
     0
 10
40.7197
 20
88.9536
 30
0.0
 11
40.7197
 21
83.1536
 31
0.0
  0
LINE
  8
0
 62
     0
 10
40.7197
 20
83.1536
 30
0.0
 11
39.9189
 21
83.1536
 31
0.0
  0
LINE
  8
0
 62
     0
 10
39.9189
 20
83.1536
 30
0.0
 11
39.9189
 21
80.0544
 31
0.0
  0
LINE
  8
0
 62
     0
 10
39.9189
 20
80.0544
 30
0.0
 11
40.7197
 21
80.0544
 31
0.0
  0
LINE
  8
0
 62
     0
 10
40.7197
 20
80.0544
 30
0.0
 11
40.7197
 21
79.054
 31
0.0
  0
LINE
  8
0
 62
     0
 10
40.7197
 20
79.054
 30
0.0
 11
54.719
 21
79.054
 31
0.0
  0
LINE
  8
0
 62
     0
 10
54.719
 20
79.054
 30
0.0
 11
54.719
 21
80.0544
 31
0.0
  0
LINE
  8
0
 62
     0
 10
54.719
 20
80.0544
 30
0.0
 11
55.5198
 21
80.0544
 31
0.0
  0
LINE
  8
0
 62
     0
 10
55.5198
 20
80.0544
 30
0.0
 11
55.5198
 21
83.1536
 31
0.0
  0
LINE
  8
0
 62
     0
 10
55.5198
 20
83.1536
 30
0.0
 11
54.719
 21
83.1536
 31
0.0
  0
LINE
  8
0
 62
     0
 10
54.719
 20
83.1536
 30
0.0
 11
54.719
 21
88.9536
 31
0.0
  0
LINE
  8
0
 62
     0
 10
54.719
 20
88.9536
 30
0.0
 11
55.5198
 21
88.9536
 31
0.0
  0
LINE
  8
0
 62
     0
 10
55.5198
 20
88.9536
 30
0.0
 11
55.5198
 21
92.0542
 31
0.0
  0
LINE
  8
0
 62
     0
 10
55.5198
 20
92.0542
 30
0.0
 11
54.719
 21
92.0542
 31
0.0
  0
LINE
  8
0
 62
     0
 10
54.719
 20
92.0542
 30
0.0
 11
54.719
 21
93.0547
 31
0.0
  0
LINE
  8
0
 62
     0
 10
54.719
 20
93.0547
 30
0.0
 11
40.7197
 21
93.0547
 31
0.0
  0
LINE
  8
0
 62
     0
 10
59.7697
 20
93.0547
 30
0.0
 11
59.7697
 21
92.0542
 31
0.0
  0
LINE
  8
0
 62
     0
 10
59.7697
 20
92.0542
 30
0.0
 11
58.9689
 21
92.0542
 31
0.0
  0
LINE
  8
0
 62
     0
 10
58.9689
 20
92.0542
 30
0.0
 11
58.9689
 21
88.9536
 31
0.0
  0
LINE
  8
0
 62
     0
 10
58.9689
 20
88.9536
 30
0.0
 11
59.7697
 21
88.9536
 31
0.0
  0
LINE
  8
0
 62
     0
 10
59.7697
 20
88.9536
 30
0.0
 11
59.7697
 21
83.1536
 31
0.0
  0
LINE
  8
0
 62
     0
 10
59.7697
 20
83.1536
 30
0.0
 11
58.9689
 21
83.1536
 31
0.0
  0
LINE
  8
0
 62
     0
 10
58.9689
 20
83.1536
 30
0.0
 11
58.9689
 21
80.0544
 31
0.0
  0
LINE
  8
0
 62
     0
 10
58.9689
 20
80.0544
 30
0.0
 11
59.7697
 21
80.0544
 31
0.0
  0
LINE
  8
0
 62
     0
 10
59.7697
 20
80.0544
 30
0.0
 11
59.7697
 21
79.054
 31
0.0
  0
LINE
  8
0
 62
     0
 10
59.7697
 20
79.054
 30
0.0
 11
73.769
 21
79.054
 31
0.0
  0
LINE
  8
0
 62
     0
 10
73.769
 20
79.054
 30
0.0
 11
73.769
 21
80.0544
 31
0.0
  0
LINE
  8
0
 62
     0
 10
73.769
 20
80.0544
 30
0.0
 11
74.5698
 21
80.0544
 31
0.0
  0
LINE
  8
0
 62
     0
 10
74.5698
 20
80.0544
 30
0.0
 11
74.5698
 21
83.1536
 31
0.0
  0
LINE
  8
0
 62
     0
 10
74.5698
 20
83.1536
 30
0.0
 11
73.769
 21
83.1536
 31
0.0
  0
LINE
  8
0
 62
     0
 10
73.769
 20
83.1536
 30
0.0
 11
73.769
 21
88.9536
 31
0.0
  0
LINE
  8
0
 62
     0
 10
73.769
 20
88.9536
 30
0.0
 11
74.5698
 21
88.9536
 31
0.0
  0
LINE
  8
0
 62
     0
 10
74.5698
 20
88.9536
 30
0.0
 11
74.5698
 21
92.0542
 31
0.0
  0
LINE
  8
0
 62
     0
 10
74.5698
 20
92.0542
 30
0.0
 11
73.769
 21
92.0542
 31
0.0
  0
LINE
  8
0
 62
     0
 10
73.769
 20
92.0542
 30
0.0
 11
73.769
 21
93.0547
 31
0.0
  0
LINE
  8
0
 62
     0
 10
73.769
 20
93.0547
 30
0.0
 11
59.7697
 21
93.0547
 31
0.0
  0
LINE
  8
0
 62
     0
 10
82.6301
 20
93.0547
 30
0.0
 11
82.6301
 21
92.0542
 31
0.0
  0
LINE
  8
0
 62
     0
 10
82.6301
 20
92.0542
 30
0.0
 11
81.8293
 21
92.0542
 31
0.0
  0
LINE
  8
0
 62
     0
 10
81.8293
 20
92.0542
 30
0.0
 11
81.8293
 21
88.9536
 31
0.0
  0
LINE
  8
0
 62
     0
 10
81.8293
 20
88.9536
 30
0.0
 11
82.6301
 21
88.9536
 31
0.0
  0
LINE
  8
0
 62
     0
 10
82.6301
 20
88.9536
 30
0.0
 11
82.6301
 21
83.1536
 31
0.0
  0
LINE
  8
0
 62
     0
 10
82.6301
 20
83.1536
 30
0.0
 11
81.8293
 21
83.1536
 31
0.0
  0
LINE
  8
0
 62
     0
 10
81.8293
 20
83.1536
 30
0.0
 11
81.8293
 21
80.0544
 31
0.0
  0
LINE
  8
0
 62
     0
 10
81.8293
 20
80.0544
 30
0.0
 11
82.6301
 21
80.0544
 31
0.0
  0
LINE
  8
0
 62
     0
 10
82.6301
 20
80.0544
 30
0.0
 11
82.6301
 21
79.054
 31
0.0
  0
LINE
  8
0
 62
     0
 10
82.6301
 20
79.054
 30
0.0
 11
96.6294
 21
79.054
 31
0.0
  0
LINE
  8
0
 62
     0
 10
96.6294
 20
79.054
 30
0.0
 11
96.6294
 21
80.0544
 31
0.0
  0
LINE
  8
0
 62
     0
 10
96.6294
 20
80.0544
 30
0.0
 11
97.4302
 21
80.0544
 31
0.0
  0
LINE
  8
0
 62
     0
 10
97.4302
 20
80.0544
 30
0.0
 11
97.4302
 21
83.1536
 31
0.0
  0
LINE
  8
0
 62
     0
 10
97.4302
 20
83.1536
 30
0.0
 11
96.6294
 21
83.1536
 31
0.0
  0
LINE
  8
0
 62
     0
 10
96.6294
 20
83.1536
 30
0.0
 11
96.6294
 21
88.9536
 31
0.0
  0
LINE
  8
0
 62
     0
 10
96.6294
 20
88.9536
 30
0.0
 11
97.4302
 21
88.9536
 31
0.0
  0
LINE
  8
0
 62
     0
 10
97.4302
 20
88.9536
 30
0.0
 11
97.4302
 21
92.0542
 31
0.0
  0
LINE
  8
0
 62
     0
 10
97.4302
 20
92.0542
 30
0.0
 11
96.6294
 21
92.0542
 31
0.0
  0
LINE
  8
0
 62
     0
 10
96.6294
 20
92.0542
 30
0.0
 11
96.6294
 21
93.0547
 31
0.0
  0
LINE
  8
0
 62
     0
 10
96.6294
 20
93.0547
 30
0.0
 11
82.6301
 21
93.0547
 31
0.0
  0
LINE
  8
0
 62
     0
 10
2.61965
 20
115.914
 30
0.0
 11
2.61965
 21
114.913
 31
0.0
  0
LINE
  8
0
 62
     0
 10
2.61965
 20
114.913
 30
0.0
 11
1.81901
 21
114.913
 31
0.0
  0
LINE
  8
0
 62
     0
 10
1.81901
 20
114.913
 30
0.0
 11
1.81901
 21
111.814
 31
0.0
  0
LINE
  8
0
 62
     0
 10
1.81901
 20
111.814
 30
0.0
 11
2.61965
 21
111.814
 31
0.0
  0
LINE
  8
0
 62
     0
 10
2.61965
 20
111.814
 30
0.0
 11
2.61965
 21
106.014
 31
0.0
  0
LINE
  8
0
 62
     0
 10
2.61965
 20
106.014
 30
0.0
 11
1.81901
 21
106.014
 31
0.0
  0
LINE
  8
0
 62
     0
 10
1.81901
 20
106.014
 30
0.0
 11
1.81901
 21
102.913
 31
0.0
  0
LINE
  8
0
 62
     0
 10
1.81901
 20
102.913
 30
0.0
 11
2.61965
 21
102.913
 31
0.0
  0
LINE
  8
0
 62
     0
 10
2.61965
 20
102.913
 30
0.0
 11
2.61965
 21
101.914
 31
0.0
  0
LINE
  8
0
 62
     0
 10
2.61965
 20
101.914
 30
0.0
 11
16.6192
 21
101.914
 31
0.0
  0
LINE
  8
0
 62
     0
 10
16.6192
 20
101.914
 30
0.0
 11
16.6192
 21
102.913
 31
0.0
  0
LINE
  8
0
 62
     0
 10
16.6192
 20
102.913
 30
0.0
 11
17.4198
 21
102.913
 31
0.0
  0
LINE
  8
0
 62
     0
 10
17.4198
 20
102.913
 30
0.0
 11
17.4198
 21
106.014
 31
0.0
  0
LINE
  8
0
 62
     0
 10
17.4198
 20
106.014
 30
0.0
 11
16.6192
 21
106.014
 31
0.0
  0
LINE
  8
0
 62
     0
 10
16.6192
 20
106.014
 30
0.0
 11
16.6192
 21
111.814
 31
0.0
  0
LINE
  8
0
 62
     0
 10
16.6192
 20
111.814
 30
0.0
 11
17.4198
 21
111.814
 31
0.0
  0
LINE
  8
0
 62
     0
 10
17.4198
 20
111.814
 30
0.0
 11
17.4198
 21
114.913
 31
0.0
  0
LINE
  8
0
 62
     0
 10
17.4198
 20
114.913
 30
0.0
 11
16.6192
 21
114.913
 31
0.0
  0
LINE
  8
0
 62
     0
 10
16.6192
 20
114.913
 30
0.0
 11
16.6192
 21
115.914
 31
0.0
  0
LINE
  8
0
 62
     0
 10
16.6192
 20
115.914
 30
0.0
 11
2.61965
 21
115.914
 31
0.0
  0
LINE
  8
0
 62
     0
 10
21.6697
 20
115.914
 30
0.0
 11
21.6697
 21
114.913
 31
0.0
  0
LINE
  8
0
 62
     0
 10
21.6697
 20
114.913
 30
0.0
 11
20.869
 21
114.913
 31
0.0
  0
LINE
  8
0
 62
     0
 10
20.869
 20
114.913
 30
0.0
 11
20.869
 21
111.814
 31
0.0
  0
LINE
  8
0
 62
     0
 10
20.869
 20
111.814
 30
0.0
 11
21.6697
 21
111.814
 31
0.0
  0
LINE
  8
0
 62
     0
 10
21.6697
 20
111.814
 30
0.0
 11
21.6697
 21
106.014
 31
0.0
  0
LINE
  8
0
 62
     0
 10
21.6697
 20
106.014
 30
0.0
 11
20.869
 21
106.014
 31
0.0
  0
LINE
  8
0
 62
     0
 10
20.869
 20
106.014
 30
0.0
 11
20.869
 21
102.913
 31
0.0
  0
LINE
  8
0
 62
     0
 10
20.869
 20
102.913
 30
0.0
 11
21.6697
 21
102.913
 31
0.0
  0
LINE
  8
0
 62
     0
 10
21.6697
 20
102.913
 30
0.0
 11
21.6697
 21
101.914
 31
0.0
  0
LINE
  8
0
 62
     0
 10
21.6697
 20
101.914
 30
0.0
 11
35.669
 21
101.914
 31
0.0
  0
LINE
  8
0
 62
     0
 10
35.669
 20
101.914
 30
0.0
 11
35.669
 21
102.913
 31
0.0
  0
LINE
  8
0
 62
     0
 10
35.669
 20
102.913
 30
0.0
 11
36.4698
 21
102.913
 31
0.0
  0
LINE
  8
0
 62
     0
 10
36.4698
 20
102.913
 30
0.0
 11
36.4698
 21
106.014
 31
0.0
  0
LINE
  8
0
 62
     0
 10
36.4698
 20
106.014
 30
0.0
 11
35.669
 21
106.014
 31
0.0
  0
LINE
  8
0
 62
     0
 10
35.669
 20
106.014
 30
0.0
 11
35.669
 21
111.814
 31
0.0
  0
LINE
  8
0
 62
     0
 10
35.669
 20
111.814
 30
0.0
 11
36.4698
 21
111.814
 31
0.0
  0
LINE
  8
0
 62
     0
 10
36.4698
 20
111.814
 30
0.0
 11
36.4698
 21
114.913
 31
0.0
  0
LINE
  8
0
 62
     0
 10
36.4698
 20
114.913
 30
0.0
 11
35.669
 21
114.913
 31
0.0
  0
LINE
  8
0
 62
     0
 10
35.669
 20
114.913
 30
0.0
 11
35.669
 21
115.914
 31
0.0
  0
LINE
  8
0
 62
     0
 10
35.669
 20
115.914
 30
0.0
 11
21.6697
 21
115.914
 31
0.0
  0
LINE
  8
0
 62
     0
 10
40.7197
 20
115.914
 30
0.0
 11
40.7197
 21
114.913
 31
0.0
  0
LINE
  8
0
 62
     0
 10
40.7197
 20
114.913
 30
0.0
 11
39.9189
 21
114.913
 31
0.0
  0
LINE
  8
0
 62
     0
 10
39.9189
 20
114.913
 30
0.0
 11
39.9189
 21
111.814
 31
0.0
  0
LINE
  8
0
 62
     0
 10
39.9189
 20
111.814
 30
0.0
 11
40.7197
 21
111.814
 31
0.0
  0
LINE
  8
0
 62
     0
 10
40.7197
 20
111.814
 30
0.0
 11
40.7197
 21
106.014
 31
0.0
  0
LINE
  8
0
 62
     0
 10
40.7197
 20
106.014
 30
0.0
 11
39.9189
 21
106.014
 31
0.0
  0
LINE
  8
0
 62
     0
 10
39.9189
 20
106.014
 30
0.0
 11
39.9189
 21
102.913
 31
0.0
  0
LINE
  8
0
 62
     0
 10
39.9189
 20
102.913
 30
0.0
 11
40.7197
 21
102.913
 31
0.0
  0
LINE
  8
0
 62
     0
 10
40.7197
 20
102.913
 30
0.0
 11
40.7197
 21
101.914
 31
0.0
  0
LINE
  8
0
 62
     0
 10
40.7197
 20
101.914
 30
0.0
 11
54.719
 21
101.914
 31
0.0
  0
LINE
  8
0
 62
     0
 10
54.719
 20
101.914
 30
0.0
 11
54.719
 21
102.913
 31
0.0
  0
LINE
  8
0
 62
     0
 10
54.719
 20
102.913
 30
0.0
 11
55.5198
 21
102.913
 31
0.0
  0
LINE
  8
0
 62
     0
 10
55.5198
 20
102.913
 30
0.0
 11
55.5198
 21
106.014
 31
0.0
  0
LINE
  8
0
 62
     0
 10
55.5198
 20
106.014
 30
0.0
 11
54.719
 21
106.014
 31
0.0
  0
LINE
  8
0
 62
     0
 10
54.719
 20
106.014
 30
0.0
 11
54.719
 21
111.814
 31
0.0
  0
LINE
  8
0
 62
     0
 10
54.719
 20
111.814
 30
0.0
 11
55.5198
 21
111.814
 31
0.0
  0
LINE
  8
0
 62
     0
 10
55.5198
 20
111.814
 30
0.0
 11
55.5198
 21
114.913
 31
0.0
  0
LINE
  8
0
 62
     0
 10
55.5198
 20
114.913
 30
0.0
 11
54.719
 21
114.913
 31
0.0
  0
LINE
  8
0
 62
     0
 10
54.719
 20
114.913
 30
0.0
 11
54.719
 21
115.914
 31
0.0
  0
LINE
  8
0
 62
     0
 10
54.719
 20
115.914
 30
0.0
 11
40.7197
 21
115.914
 31
0.0
  0
LINE
  8
0
 62
     0
 10
59.7697
 20
115.914
 30
0.0
 11
59.7697
 21
114.913
 31
0.0
  0
LINE
  8
0
 62
     0
 10
59.7697
 20
114.913
 30
0.0
 11
58.9689
 21
114.913
 31
0.0
  0
LINE
  8
0
 62
     0
 10
58.9689
 20
114.913
 30
0.0
 11
58.9689
 21
111.814
 31
0.0
  0
LINE
  8
0
 62
     0
 10
58.9689
 20
111.814
 30
0.0
 11
59.7697
 21
111.814
 31
0.0
  0
LINE
  8
0
 62
     0
 10
59.7697
 20
111.814
 30
0.0
 11
59.7697
 21
106.014
 31
0.0
  0
LINE
  8
0
 62
     0
 10
59.7697
 20
106.014
 30
0.0
 11
58.9689
 21
106.014
 31
0.0
  0
LINE
  8
0
 62
     0
 10
58.9689
 20
106.014
 30
0.0
 11
58.9689
 21
102.913
 31
0.0
  0
LINE
  8
0
 62
     0
 10
58.9689
 20
102.913
 30
0.0
 11
59.7697
 21
102.913
 31
0.0
  0
LINE
  8
0
 62
     0
 10
59.7697
 20
102.913
 30
0.0
 11
59.7697
 21
101.914
 31
0.0
  0
LINE
  8
0
 62
     0
 10
59.7697
 20
101.914
 30
0.0
 11
73.769
 21
101.914
 31
0.0
  0
LINE
  8
0
 62
     0
 10
73.769
 20
101.914
 30
0.0
 11
73.769
 21
102.913
 31
0.0
  0
LINE
  8
0
 62
     0
 10
73.769
 20
102.913
 30
0.0
 11
74.5698
 21
102.913
 31
0.0
  0
LINE
  8
0
 62
     0
 10
74.5698
 20
102.913
 30
0.0
 11
74.5698
 21
106.014
 31
0.0
  0
LINE
  8
0
 62
     0
 10
74.5698
 20
106.014
 30
0.0
 11
73.769
 21
106.014
 31
0.0
  0
LINE
  8
0
 62
     0
 10
73.769
 20
106.014
 30
0.0
 11
73.769
 21
111.814
 31
0.0
  0
LINE
  8
0
 62
     0
 10
73.769
 20
111.814
 30
0.0
 11
74.5698
 21
111.814
 31
0.0
  0
LINE
  8
0
 62
     0
 10
74.5698
 20
111.814
 30
0.0
 11
74.5698
 21
114.913
 31
0.0
  0
LINE
  8
0
 62
     0
 10
74.5698
 20
114.913
 30
0.0
 11
73.769
 21
114.913
 31
0.0
  0
LINE
  8
0
 62
     0
 10
73.769
 20
114.913
 30
0.0
 11
73.769
 21
115.914
 31
0.0
  0
LINE
  8
0
 62
     0
 10
73.769
 20
115.914
 30
0.0
 11
59.7697
 21
115.914
 31
0.0
  0
LINE
  8
0
 62
     0
 10
82.6301
 20
115.914
 30
0.0
 11
82.6301
 21
114.913
 31
0.0
  0
LINE
  8
0
 62
     0
 10
82.6301
 20
114.913
 30
0.0
 11
81.8293
 21
114.913
 31
0.0
  0
LINE
  8
0
 62
     0
 10
81.8293
 20
114.913
 30
0.0
 11
81.8293
 21
111.814
 31
0.0
  0
LINE
  8
0
 62
     0
 10
81.8293
 20
111.814
 30
0.0
 11
82.6301
 21
111.814
 31
0.0
  0
LINE
  8
0
 62
     0
 10
82.6301
 20
111.814
 30
0.0
 11
82.6301
 21
106.014
 31
0.0
  0
LINE
  8
0
 62
     0
 10
82.6301
 20
106.014
 30
0.0
 11
81.8293
 21
106.014
 31
0.0
  0
LINE
  8
0
 62
     0
 10
81.8293
 20
106.014
 30
0.0
 11
81.8293
 21
102.913
 31
0.0
  0
LINE
  8
0
 62
     0
 10
81.8293
 20
102.913
 30
0.0
 11
82.6301
 21
102.913
 31
0.0
  0
LINE
  8
0
 62
     0
 10
82.6301
 20
102.913
 30
0.0
 11
82.6301
 21
101.914
 31
0.0
  0
LINE
  8
0
 62
     0
 10
82.6301
 20
101.914
 30
0.0
 11
96.6294
 21
101.914
 31
0.0
  0
LINE
  8
0
 62
     0
 10
96.6294
 20
101.914
 30
0.0
 11
96.6294
 21
102.913
 31
0.0
  0
LINE
  8
0
 62
     0
 10
96.6294
 20
102.913
 30
0.0
 11
97.4302
 21
102.913
 31
0.0
  0
LINE
  8
0
 62
     0
 10
97.4302
 20
102.913
 30
0.0
 11
97.4302
 21
106.014
 31
0.0
  0
LINE
  8
0
 62
     0
 10
97.4302
 20
106.014
 30
0.0
 11
96.6294
 21
106.014
 31
0.0
  0
LINE
  8
0
 62
     0
 10
96.6294
 20
106.014
 30
0.0
 11
96.6294
 21
111.814
 31
0.0
  0
LINE
  8
0
 62
     0
 10
96.6294
 20
111.814
 30
0.0
 11
97.4302
 21
111.814
 31
0.0
  0
LINE
  8
0
 62
     0
 10
97.4302
 20
111.814
 30
0.0
 11
97.4302
 21
114.913
 31
0.0
  0
LINE
  8
0
 62
     0
 10
97.4302
 20
114.913
 30
0.0
 11
96.6294
 21
114.913
 31
0.0
  0
LINE
  8
0
 62
     0
 10
96.6294
 20
114.913
 30
0.0
 11
96.6294
 21
115.914
 31
0.0
  0
LINE
  8
0
 62
     0
 10
96.6294
 20
115.914
 30
0.0
 11
82.6301
 21
115.914
 31
0.0
  0
ENDSEC
  0
EOF
